<?xml version="1.0" encoding="utf-8" standalone="no"?>
<!DOCTYPE svg PUBLIC "-//W3C//DTD SVG 1.1//EN"
  "http://www.w3.org/Graphics/SVG/1.1/DTD/svg11.dtd">
<svg xmlns:xlink="http://www.w3.org/1999/xlink" width="469.19952pt" height="512.403971pt" viewBox="0 0 469.19952 512.403971" xmlns="http://www.w3.org/2000/svg" version="1.1">
 <metadata>
  <rdf:RDF xmlns:dc="http://purl.org/dc/elements/1.1/" xmlns:cc="http://creativecommons.org/ns#" xmlns:rdf="http://www.w3.org/1999/02/22-rdf-syntax-ns#">
   <cc:Work>
    <dc:type rdf:resource="http://purl.org/dc/dcmitype/StillImage"/>
    <dc:format>image/svg+xml</dc:format>
    <dc:creator>
     <cc:Agent>
      <dc:title>EDinPy documentation</dc:title>
     </cc:Agent>
    </dc:creator>
   </cc:Work>
  </rdf:RDF>
 </metadata>
 <defs>
  <style type="text/css">*{stroke-linejoin: round; stroke-linecap: butt}</style>
 </defs>
 <g id="figure_1">
  <g id="patch_1">
   <path d="M 0 512.403971
L 469.19952 512.403971
L 469.19952 0
L 0 0
z
" style="fill: #ffffff"/>
  </g>
  <g id="axes_1">
   <g id="patch_2">
    <path d="M 55.458906 158.854349
L 461.99952 158.854349
L 461.99952 9.874237
L 55.458906 9.874237
z
" style="fill: #ffffff"/>
   </g>
   <g id="matplotlib.axis_1">
    <g id="xtick_1">
     <g id="line2d_1">
      <defs>
       <path id="m1c0b98335c" d="M 0 0
L 0 3.5
" style="stroke: #000000; stroke-width: 0.8"/>
      </defs>
      <g>
       <use xlink:href="#m1c0b98335c" x="73.938025" y="158.854349" style="stroke: #000000; stroke-width: 0.8"/>
      </g>
     </g>
    </g>
    <g id="xtick_2">
     <g id="line2d_2">
      <g>
       <use xlink:href="#m1c0b98335c" x="135.535088" y="158.854349" style="stroke: #000000; stroke-width: 0.8"/>
      </g>
     </g>
    </g>
    <g id="xtick_3">
     <g id="line2d_3">
      <g>
       <use xlink:href="#m1c0b98335c" x="197.13215" y="158.854349" style="stroke: #000000; stroke-width: 0.8"/>
      </g>
     </g>
    </g>
    <g id="xtick_4">
     <g id="line2d_4">
      <g>
       <use xlink:href="#m1c0b98335c" x="258.729213" y="158.854349" style="stroke: #000000; stroke-width: 0.8"/>
      </g>
     </g>
    </g>
    <g id="xtick_5">
     <g id="line2d_5">
      <g>
       <use xlink:href="#m1c0b98335c" x="320.326276" y="158.854349" style="stroke: #000000; stroke-width: 0.8"/>
      </g>
     </g>
    </g>
    <g id="xtick_6">
     <g id="line2d_6">
      <g>
       <use xlink:href="#m1c0b98335c" x="381.923339" y="158.854349" style="stroke: #000000; stroke-width: 0.8"/>
      </g>
     </g>
    </g>
    <g id="xtick_7">
     <g id="line2d_7">
      <g>
       <use xlink:href="#m1c0b98335c" x="443.520401" y="158.854349" style="stroke: #000000; stroke-width: 0.8"/>
      </g>
     </g>
    </g>
   </g>
   <g id="matplotlib.axis_2">
    <g id="ytick_1">
     <g id="line2d_8">
      <defs>
       <path id="m4201cc1156" d="M 0 0
L -3.5 0
" style="stroke: #000000; stroke-width: 0.8"/>
      </defs>
      <g>
       <use xlink:href="#m4201cc1156" x="55.458906" y="152.082526" style="stroke: #000000; stroke-width: 0.8"/>
      </g>
     </g>
     <g id="text_1">
      <!-- −2.00 -->
      <g transform="translate(20.878125 155.501823) scale(0.09 -0.09)">
       <defs>
        <path id="DejaVuSans-2212" d="M 678 2272
L 4684 2272
L 4684 1741
L 678 1741
L 678 2272
z
" transform="scale(0.015625)"/>
        <path id="DejaVuSans-32" d="M 1228 531
L 3431 531
L 3431 0
L 469 0
L 469 531
Q 828 903 1448 1529
Q 2069 2156 2228 2338
Q 2531 2678 2651 2914
Q 2772 3150 2772 3378
Q 2772 3750 2511 3984
Q 2250 4219 1831 4219
Q 1534 4219 1204 4116
Q 875 4013 500 3803
L 500 4441
Q 881 4594 1212 4672
Q 1544 4750 1819 4750
Q 2544 4750 2975 4387
Q 3406 4025 3406 3419
Q 3406 3131 3298 2873
Q 3191 2616 2906 2266
Q 2828 2175 2409 1742
Q 1991 1309 1228 531
z
" transform="scale(0.015625)"/>
        <path id="DejaVuSans-2e" d="M 684 794
L 1344 794
L 1344 0
L 684 0
L 684 794
z
" transform="scale(0.015625)"/>
        <path id="DejaVuSans-30" d="M 2034 4250
Q 1547 4250 1301 3770
Q 1056 3291 1056 2328
Q 1056 1369 1301 889
Q 1547 409 2034 409
Q 2525 409 2770 889
Q 3016 1369 3016 2328
Q 3016 3291 2770 3770
Q 2525 4250 2034 4250
z
M 2034 4750
Q 2819 4750 3233 4129
Q 3647 3509 3647 2328
Q 3647 1150 3233 529
Q 2819 -91 2034 -91
Q 1250 -91 836 529
Q 422 1150 422 2328
Q 422 3509 836 4129
Q 1250 4750 2034 4750
z
" transform="scale(0.015625)"/>
       </defs>
       <use xlink:href="#DejaVuSans-2212"/>
       <use xlink:href="#DejaVuSans-32" transform="translate(83.789062 0)"/>
       <use xlink:href="#DejaVuSans-2e" transform="translate(147.412109 0)"/>
       <use xlink:href="#DejaVuSans-30" transform="translate(179.199219 0)"/>
       <use xlink:href="#DejaVuSans-30" transform="translate(242.822266 0)"/>
      </g>
     </g>
    </g>
    <g id="ytick_2">
     <g id="line2d_9">
      <g>
       <use xlink:href="#m4201cc1156" x="55.458906" y="131.873493" style="stroke: #000000; stroke-width: 0.8"/>
      </g>
     </g>
     <g id="text_2">
      <!-- −1.75 -->
      <g transform="translate(20.878125 135.29279) scale(0.09 -0.09)">
       <defs>
        <path id="DejaVuSans-31" d="M 794 531
L 1825 531
L 1825 4091
L 703 3866
L 703 4441
L 1819 4666
L 2450 4666
L 2450 531
L 3481 531
L 3481 0
L 794 0
L 794 531
z
" transform="scale(0.015625)"/>
        <path id="DejaVuSans-37" d="M 525 4666
L 3525 4666
L 3525 4397
L 1831 0
L 1172 0
L 2766 4134
L 525 4134
L 525 4666
z
" transform="scale(0.015625)"/>
        <path id="DejaVuSans-35" d="M 691 4666
L 3169 4666
L 3169 4134
L 1269 4134
L 1269 2991
Q 1406 3038 1543 3061
Q 1681 3084 1819 3084
Q 2600 3084 3056 2656
Q 3513 2228 3513 1497
Q 3513 744 3044 326
Q 2575 -91 1722 -91
Q 1428 -91 1123 -41
Q 819 9 494 109
L 494 744
Q 775 591 1075 516
Q 1375 441 1709 441
Q 2250 441 2565 725
Q 2881 1009 2881 1497
Q 2881 1984 2565 2268
Q 2250 2553 1709 2553
Q 1456 2553 1204 2497
Q 953 2441 691 2322
L 691 4666
z
" transform="scale(0.015625)"/>
       </defs>
       <use xlink:href="#DejaVuSans-2212"/>
       <use xlink:href="#DejaVuSans-31" transform="translate(83.789062 0)"/>
       <use xlink:href="#DejaVuSans-2e" transform="translate(147.412109 0)"/>
       <use xlink:href="#DejaVuSans-37" transform="translate(179.199219 0)"/>
       <use xlink:href="#DejaVuSans-35" transform="translate(242.822266 0)"/>
      </g>
     </g>
    </g>
    <g id="ytick_3">
     <g id="line2d_10">
      <g>
       <use xlink:href="#m4201cc1156" x="55.458906" y="111.66446" style="stroke: #000000; stroke-width: 0.8"/>
      </g>
     </g>
     <g id="text_3">
      <!-- −1.50 -->
      <g transform="translate(20.878125 115.083757) scale(0.09 -0.09)">
       <use xlink:href="#DejaVuSans-2212"/>
       <use xlink:href="#DejaVuSans-31" transform="translate(83.789062 0)"/>
       <use xlink:href="#DejaVuSans-2e" transform="translate(147.412109 0)"/>
       <use xlink:href="#DejaVuSans-35" transform="translate(179.199219 0)"/>
       <use xlink:href="#DejaVuSans-30" transform="translate(242.822266 0)"/>
      </g>
     </g>
    </g>
    <g id="ytick_4">
     <g id="line2d_11">
      <g>
       <use xlink:href="#m4201cc1156" x="55.458906" y="91.455428" style="stroke: #000000; stroke-width: 0.8"/>
      </g>
     </g>
     <g id="text_4">
      <!-- −1.25 -->
      <g transform="translate(20.878125 94.874725) scale(0.09 -0.09)">
       <use xlink:href="#DejaVuSans-2212"/>
       <use xlink:href="#DejaVuSans-31" transform="translate(83.789062 0)"/>
       <use xlink:href="#DejaVuSans-2e" transform="translate(147.412109 0)"/>
       <use xlink:href="#DejaVuSans-32" transform="translate(179.199219 0)"/>
       <use xlink:href="#DejaVuSans-35" transform="translate(242.822266 0)"/>
      </g>
     </g>
    </g>
    <g id="ytick_5">
     <g id="line2d_12">
      <g>
       <use xlink:href="#m4201cc1156" x="55.458906" y="71.246395" style="stroke: #000000; stroke-width: 0.8"/>
      </g>
     </g>
     <g id="text_5">
      <!-- −1.00 -->
      <g transform="translate(20.878125 74.665692) scale(0.09 -0.09)">
       <use xlink:href="#DejaVuSans-2212"/>
       <use xlink:href="#DejaVuSans-31" transform="translate(83.789062 0)"/>
       <use xlink:href="#DejaVuSans-2e" transform="translate(147.412109 0)"/>
       <use xlink:href="#DejaVuSans-30" transform="translate(179.199219 0)"/>
       <use xlink:href="#DejaVuSans-30" transform="translate(242.822266 0)"/>
      </g>
     </g>
    </g>
    <g id="ytick_6">
     <g id="line2d_13">
      <g>
       <use xlink:href="#m4201cc1156" x="55.458906" y="51.037362" style="stroke: #000000; stroke-width: 0.8"/>
      </g>
     </g>
     <g id="text_6">
      <!-- −0.75 -->
      <g transform="translate(20.878125 54.456659) scale(0.09 -0.09)">
       <use xlink:href="#DejaVuSans-2212"/>
       <use xlink:href="#DejaVuSans-30" transform="translate(83.789062 0)"/>
       <use xlink:href="#DejaVuSans-2e" transform="translate(147.412109 0)"/>
       <use xlink:href="#DejaVuSans-37" transform="translate(179.199219 0)"/>
       <use xlink:href="#DejaVuSans-35" transform="translate(242.822266 0)"/>
      </g>
     </g>
    </g>
    <g id="ytick_7">
     <g id="line2d_14">
      <g>
       <use xlink:href="#m4201cc1156" x="55.458906" y="30.82833" style="stroke: #000000; stroke-width: 0.8"/>
      </g>
     </g>
     <g id="text_7">
      <!-- −0.50 -->
      <g transform="translate(20.878125 34.247626) scale(0.09 -0.09)">
       <use xlink:href="#DejaVuSans-2212"/>
       <use xlink:href="#DejaVuSans-30" transform="translate(83.789062 0)"/>
       <use xlink:href="#DejaVuSans-2e" transform="translate(147.412109 0)"/>
       <use xlink:href="#DejaVuSans-35" transform="translate(179.199219 0)"/>
       <use xlink:href="#DejaVuSans-30" transform="translate(242.822266 0)"/>
      </g>
     </g>
    </g>
    <g id="ytick_8">
     <g id="line2d_15">
      <g>
       <use xlink:href="#m4201cc1156" x="55.458906" y="10.619297" style="stroke: #000000; stroke-width: 0.8"/>
      </g>
     </g>
     <g id="text_8">
      <!-- −0.25 -->
      <g transform="translate(20.878125 14.038594) scale(0.09 -0.09)">
       <use xlink:href="#DejaVuSans-2212"/>
       <use xlink:href="#DejaVuSans-30" transform="translate(83.789062 0)"/>
       <use xlink:href="#DejaVuSans-2e" transform="translate(147.412109 0)"/>
       <use xlink:href="#DejaVuSans-32" transform="translate(179.199219 0)"/>
       <use xlink:href="#DejaVuSans-35" transform="translate(242.822266 0)"/>
      </g>
     </g>
    </g>
    <g id="text_9">
     <!-- $E_0/t$ -->
     <g transform="translate(14.798438 93.564293) rotate(-90) scale(0.1 -0.1)">
      <defs>
       <path id="DejaVuSans-Oblique-45" d="M 1081 4666
L 4031 4666
L 3928 4134
L 1606 4134
L 1338 2753
L 3566 2753
L 3463 2222
L 1234 2222
L 909 531
L 3284 531
L 3181 0
L 172 0
L 1081 4666
z
" transform="scale(0.015625)"/>
       <path id="DejaVuSans-2f" d="M 1625 4666
L 2156 4666
L 531 -594
L 0 -594
L 1625 4666
z
" transform="scale(0.015625)"/>
       <path id="DejaVuSans-Oblique-74" d="M 2706 3500
L 2619 3053
L 1472 3053
L 1100 1153
Q 1081 1047 1072 975
Q 1063 903 1063 863
Q 1063 663 1183 572
Q 1303 481 1569 481
L 2150 481
L 2053 0
L 1503 0
Q 991 0 739 200
Q 488 400 488 806
Q 488 878 497 964
Q 506 1050 525 1153
L 897 3053
L 409 3053
L 500 3500
L 978 3500
L 1172 4494
L 1747 4494
L 1556 3500
L 2706 3500
z
" transform="scale(0.015625)"/>
      </defs>
      <use xlink:href="#DejaVuSans-Oblique-45" transform="translate(0 0.09375)"/>
      <use xlink:href="#DejaVuSans-30" transform="translate(63.183594 -16.3125) scale(0.7)"/>
      <use xlink:href="#DejaVuSans-2f" transform="translate(110.454102 0.09375)"/>
      <use xlink:href="#DejaVuSans-Oblique-74" transform="translate(144.145508 0.09375)"/>
     </g>
    </g>
   </g>
   <g id="line2d_16">
    <path d="M 73.938025 152.082526
L 79.863193 144.493591
L 85.788362 137.277138
L 91.71353 130.429339
L 97.638698 123.943961
L 103.563867 117.812565
L 109.489035 112.024775
L 115.414204 106.568578
L 121.339372 101.430653
L 127.26454 96.596705
L 133.189709 92.051778
L 139.114877 87.780559
L 145.040045 83.767631
L 150.965214 79.997702
L 157.631028 76.028356
L 164.296842 72.326974
L 170.962657 68.873843
L 178.369117 65.305535
L 185.775578 61.996745
L 193.182038 58.925291
L 201.329145 55.796502
L 209.476251 52.905447
L 218.364004 49.996445
L 227.251756 47.317673
L 236.880155 44.648615
L 247.249199 42.016122
L 258.35889 39.442433
L 269.468581 37.094433
L 281.318917 34.809176
L 293.9099 32.599254
L 307.982175 30.361763
L 322.795096 28.236741
L 339.089309 26.134397
L 356.124168 24.162771
L 374.640319 22.243874
L 394.637762 20.394676
L 416.857144 18.569734
L 440.557817 16.847064
L 443.520401 16.646061
L 443.520401 16.646061
" clip-path="url(#p5752166243)" style="fill: none; stroke: #1f77b4; stroke-width: 1.6; stroke-linecap: square"/>
   </g>
   <g id="line2d_17">
    <defs>
     <path id="m699dcde799" d="M 0 2
C 0.530406 2 1.03916 1.789267 1.414214 1.414214
C 1.789267 1.03916 2 0.530406 2 0
C 2 -0.530406 1.789267 -1.03916 1.414214 -1.414214
C 1.03916 -1.789267 0.530406 -2 0 -2
C -0.530406 -2 -1.03916 -1.789267 -1.414214 -1.414214
C -1.789267 -1.03916 -2 -0.530406 -2 0
C -2 0.530406 -1.789267 1.03916 -1.414214 1.414214
C -1.03916 1.789267 -0.530406 2 0 2
z
" style="stroke: #ff7f0e"/>
    </defs>
    <g clip-path="url(#p5752166243)">
     <use xlink:href="#m699dcde799" x="73.938025" y="152.082526" style="fill-opacity: 0; stroke: #ff7f0e"/>
     <use xlink:href="#m699dcde799" x="104.736556" y="116.640152" style="fill-opacity: 0; stroke: #ff7f0e"/>
     <use xlink:href="#m699dcde799" x="135.535088" y="90.329217" style="fill-opacity: 0; stroke: #ff7f0e"/>
     <use xlink:href="#m699dcde799" x="166.333619" y="71.246395" style="fill-opacity: 0; stroke: #ff7f0e"/>
     <use xlink:href="#m699dcde799" x="197.13215" y="57.377108" style="fill-opacity: 0; stroke: #ff7f0e"/>
     <use xlink:href="#m699dcde799" x="227.930682" y="47.121831" style="fill-opacity: 0; stroke: #ff7f0e"/>
     <use xlink:href="#m699dcde799" x="258.729213" y="39.360686" style="fill-opacity: 0; stroke: #ff7f0e"/>
     <use xlink:href="#m699dcde799" x="289.527744" y="33.344667" style="fill-opacity: 0; stroke: #ff7f0e"/>
     <use xlink:href="#m699dcde799" x="320.326276" y="28.575908" style="fill-opacity: 0; stroke: #ff7f0e"/>
     <use xlink:href="#m699dcde799" x="351.124807" y="24.719454" style="fill-opacity: 0; stroke: #ff7f0e"/>
     <use xlink:href="#m699dcde799" x="381.923339" y="21.545497" style="fill-opacity: 0; stroke: #ff7f0e"/>
     <use xlink:href="#m699dcde799" x="412.72187" y="18.892871" style="fill-opacity: 0; stroke: #ff7f0e"/>
     <use xlink:href="#m699dcde799" x="443.520401" y="16.646061" style="fill-opacity: 0; stroke: #ff7f0e"/>
    </g>
   </g>
   <g id="patch_3">
    <path d="M 55.458906 158.854349
L 55.458906 9.874237
" style="fill: none; stroke: #000000; stroke-width: 0.8; stroke-linejoin: miter; stroke-linecap: square"/>
   </g>
   <g id="patch_4">
    <path d="M 461.99952 158.854349
L 461.99952 9.874237
" style="fill: none; stroke: #000000; stroke-width: 0.8; stroke-linejoin: miter; stroke-linecap: square"/>
   </g>
   <g id="patch_5">
    <path d="M 55.458906 158.854349
L 461.99952 158.854349
" style="fill: none; stroke: #000000; stroke-width: 0.8; stroke-linejoin: miter; stroke-linecap: square"/>
   </g>
   <g id="patch_6">
    <path d="M 55.458906 9.874237
L 461.99952 9.874237
" style="fill: none; stroke: #000000; stroke-width: 0.8; stroke-linejoin: miter; stroke-linecap: square"/>
   </g>
   <g id="legend_1">
    <g id="patch_7">
     <path d="M 59.958906 43.494862
L 127.897656 43.494862
L 127.897656 14.374237
L 59.958906 14.374237
z
" style="fill: #ffffff; stroke: #cccccc; stroke-linejoin: miter"/>
    </g>
    <g id="line2d_18">
     <path d="M 63.558906 21.662831
L 72.558906 21.662831
L 81.558906 21.662831
" style="fill: none; stroke: #1f77b4; stroke-width: 1.6; stroke-linecap: square"/>
    </g>
    <g id="text_10">
     <!-- analytic -->
     <g transform="translate(88.758906 24.812831) scale(0.09 -0.09)">
      <defs>
       <path id="DejaVuSans-61" d="M 2194 1759
Q 1497 1759 1228 1600
Q 959 1441 959 1056
Q 959 750 1161 570
Q 1363 391 1709 391
Q 2188 391 2477 730
Q 2766 1069 2766 1631
L 2766 1759
L 2194 1759
z
M 3341 1997
L 3341 0
L 2766 0
L 2766 531
Q 2569 213 2275 61
Q 1981 -91 1556 -91
Q 1019 -91 701 211
Q 384 513 384 1019
Q 384 1609 779 1909
Q 1175 2209 1959 2209
L 2766 2209
L 2766 2266
Q 2766 2663 2505 2880
Q 2244 3097 1772 3097
Q 1472 3097 1187 3025
Q 903 2953 641 2809
L 641 3341
Q 956 3463 1253 3523
Q 1550 3584 1831 3584
Q 2591 3584 2966 3190
Q 3341 2797 3341 1997
z
" transform="scale(0.015625)"/>
       <path id="DejaVuSans-6e" d="M 3513 2113
L 3513 0
L 2938 0
L 2938 2094
Q 2938 2591 2744 2837
Q 2550 3084 2163 3084
Q 1697 3084 1428 2787
Q 1159 2491 1159 1978
L 1159 0
L 581 0
L 581 3500
L 1159 3500
L 1159 2956
Q 1366 3272 1645 3428
Q 1925 3584 2291 3584
Q 2894 3584 3203 3211
Q 3513 2838 3513 2113
z
" transform="scale(0.015625)"/>
       <path id="DejaVuSans-6c" d="M 603 4863
L 1178 4863
L 1178 0
L 603 0
L 603 4863
z
" transform="scale(0.015625)"/>
       <path id="DejaVuSans-79" d="M 2059 -325
Q 1816 -950 1584 -1140
Q 1353 -1331 966 -1331
L 506 -1331
L 506 -850
L 844 -850
Q 1081 -850 1212 -737
Q 1344 -625 1503 -206
L 1606 56
L 191 3500
L 800 3500
L 1894 763
L 2988 3500
L 3597 3500
L 2059 -325
z
" transform="scale(0.015625)"/>
       <path id="DejaVuSans-74" d="M 1172 4494
L 1172 3500
L 2356 3500
L 2356 3053
L 1172 3053
L 1172 1153
Q 1172 725 1289 603
Q 1406 481 1766 481
L 2356 481
L 2356 0
L 1766 0
Q 1100 0 847 248
Q 594 497 594 1153
L 594 3053
L 172 3053
L 172 3500
L 594 3500
L 594 4494
L 1172 4494
z
" transform="scale(0.015625)"/>
       <path id="DejaVuSans-69" d="M 603 3500
L 1178 3500
L 1178 0
L 603 0
L 603 3500
z
M 603 4863
L 1178 4863
L 1178 4134
L 603 4134
L 603 4863
z
" transform="scale(0.015625)"/>
       <path id="DejaVuSans-63" d="M 3122 3366
L 3122 2828
Q 2878 2963 2633 3030
Q 2388 3097 2138 3097
Q 1578 3097 1268 2742
Q 959 2388 959 1747
Q 959 1106 1268 751
Q 1578 397 2138 397
Q 2388 397 2633 464
Q 2878 531 3122 666
L 3122 134
Q 2881 22 2623 -34
Q 2366 -91 2075 -91
Q 1284 -91 818 406
Q 353 903 353 1747
Q 353 2603 823 3093
Q 1294 3584 2113 3584
Q 2378 3584 2631 3529
Q 2884 3475 3122 3366
z
" transform="scale(0.015625)"/>
      </defs>
      <use xlink:href="#DejaVuSans-61"/>
      <use xlink:href="#DejaVuSans-6e" transform="translate(61.279297 0)"/>
      <use xlink:href="#DejaVuSans-61" transform="translate(124.658203 0)"/>
      <use xlink:href="#DejaVuSans-6c" transform="translate(185.9375 0)"/>
      <use xlink:href="#DejaVuSans-79" transform="translate(213.720703 0)"/>
      <use xlink:href="#DejaVuSans-74" transform="translate(272.900391 0)"/>
      <use xlink:href="#DejaVuSans-69" transform="translate(312.109375 0)"/>
      <use xlink:href="#DejaVuSans-63" transform="translate(339.892578 0)"/>
     </g>
    </g>
    <g id="line2d_19">
     <g>
      <use xlink:href="#m699dcde799" x="72.558906" y="34.873143" style="fill-opacity: 0; stroke: #ff7f0e"/>
     </g>
    </g>
    <g id="text_11">
     <!-- ED -->
     <g transform="translate(88.758906 38.023143) scale(0.09 -0.09)">
      <defs>
       <path id="DejaVuSans-45" d="M 628 4666
L 3578 4666
L 3578 4134
L 1259 4134
L 1259 2753
L 3481 2753
L 3481 2222
L 1259 2222
L 1259 531
L 3634 531
L 3634 0
L 628 0
L 628 4666
z
" transform="scale(0.015625)"/>
       <path id="DejaVuSans-44" d="M 1259 4147
L 1259 519
L 2022 519
Q 2988 519 3436 956
Q 3884 1394 3884 2338
Q 3884 3275 3436 3711
Q 2988 4147 2022 4147
L 1259 4147
z
M 628 4666
L 1925 4666
Q 3281 4666 3915 4102
Q 4550 3538 4550 2338
Q 4550 1131 3912 565
Q 3275 0 1925 0
L 628 0
L 628 4666
z
" transform="scale(0.015625)"/>
      </defs>
      <use xlink:href="#DejaVuSans-45"/>
      <use xlink:href="#DejaVuSans-44" transform="translate(63.183594 0)"/>
     </g>
    </g>
   </g>
  </g>
  <g id="axes_2">
   <g id="patch_8">
    <path d="M 55.458906 317.334941
L 461.99952 317.334941
L 461.99952 168.354829
L 55.458906 168.354829
z
" style="fill: #ffffff"/>
   </g>
   <g id="matplotlib.axis_3">
    <g id="xtick_8">
     <g id="line2d_20">
      <g>
       <use xlink:href="#m1c0b98335c" x="73.938025" y="317.334941" style="stroke: #000000; stroke-width: 0.8"/>
      </g>
     </g>
    </g>
    <g id="xtick_9">
     <g id="line2d_21">
      <g>
       <use xlink:href="#m1c0b98335c" x="135.535088" y="317.334941" style="stroke: #000000; stroke-width: 0.8"/>
      </g>
     </g>
    </g>
    <g id="xtick_10">
     <g id="line2d_22">
      <g>
       <use xlink:href="#m1c0b98335c" x="197.13215" y="317.334941" style="stroke: #000000; stroke-width: 0.8"/>
      </g>
     </g>
    </g>
    <g id="xtick_11">
     <g id="line2d_23">
      <g>
       <use xlink:href="#m1c0b98335c" x="258.729213" y="317.334941" style="stroke: #000000; stroke-width: 0.8"/>
      </g>
     </g>
    </g>
    <g id="xtick_12">
     <g id="line2d_24">
      <g>
       <use xlink:href="#m1c0b98335c" x="320.326276" y="317.334941" style="stroke: #000000; stroke-width: 0.8"/>
      </g>
     </g>
    </g>
    <g id="xtick_13">
     <g id="line2d_25">
      <g>
       <use xlink:href="#m1c0b98335c" x="381.923339" y="317.334941" style="stroke: #000000; stroke-width: 0.8"/>
      </g>
     </g>
    </g>
    <g id="xtick_14">
     <g id="line2d_26">
      <g>
       <use xlink:href="#m1c0b98335c" x="443.520401" y="317.334941" style="stroke: #000000; stroke-width: 0.8"/>
      </g>
     </g>
    </g>
   </g>
   <g id="matplotlib.axis_4">
    <g id="ytick_9">
     <g id="line2d_27">
      <g>
       <use xlink:href="#m4201cc1156" x="55.458906" y="289.336708" style="stroke: #000000; stroke-width: 0.8"/>
      </g>
     </g>
     <g id="text_12">
      <!-- 0.1 -->
      <g transform="translate(34.146094 292.756005) scale(0.09 -0.09)">
       <use xlink:href="#DejaVuSans-30"/>
       <use xlink:href="#DejaVuSans-2e" transform="translate(63.623047 0)"/>
       <use xlink:href="#DejaVuSans-31" transform="translate(95.410156 0)"/>
      </g>
     </g>
    </g>
    <g id="ytick_10">
     <g id="line2d_28">
      <g>
       <use xlink:href="#m4201cc1156" x="55.458906" y="260.784194" style="stroke: #000000; stroke-width: 0.8"/>
      </g>
     </g>
     <g id="text_13">
      <!-- 0.2 -->
      <g transform="translate(34.146094 264.203491) scale(0.09 -0.09)">
       <use xlink:href="#DejaVuSans-30"/>
       <use xlink:href="#DejaVuSans-2e" transform="translate(63.623047 0)"/>
       <use xlink:href="#DejaVuSans-32" transform="translate(95.410156 0)"/>
      </g>
     </g>
    </g>
    <g id="ytick_11">
     <g id="line2d_29">
      <g>
       <use xlink:href="#m4201cc1156" x="55.458906" y="232.23168" style="stroke: #000000; stroke-width: 0.8"/>
      </g>
     </g>
     <g id="text_14">
      <!-- 0.3 -->
      <g transform="translate(34.146094 235.650977) scale(0.09 -0.09)">
       <defs>
        <path id="DejaVuSans-33" d="M 2597 2516
Q 3050 2419 3304 2112
Q 3559 1806 3559 1356
Q 3559 666 3084 287
Q 2609 -91 1734 -91
Q 1441 -91 1130 -33
Q 819 25 488 141
L 488 750
Q 750 597 1062 519
Q 1375 441 1716 441
Q 2309 441 2620 675
Q 2931 909 2931 1356
Q 2931 1769 2642 2001
Q 2353 2234 1838 2234
L 1294 2234
L 1294 2753
L 1863 2753
Q 2328 2753 2575 2939
Q 2822 3125 2822 3475
Q 2822 3834 2567 4026
Q 2313 4219 1838 4219
Q 1578 4219 1281 4162
Q 984 4106 628 3988
L 628 4550
Q 988 4650 1302 4700
Q 1616 4750 1894 4750
Q 2613 4750 3031 4423
Q 3450 4097 3450 3541
Q 3450 3153 3228 2886
Q 3006 2619 2597 2516
z
" transform="scale(0.015625)"/>
       </defs>
       <use xlink:href="#DejaVuSans-30"/>
       <use xlink:href="#DejaVuSans-2e" transform="translate(63.623047 0)"/>
       <use xlink:href="#DejaVuSans-33" transform="translate(95.410156 0)"/>
      </g>
     </g>
    </g>
    <g id="ytick_12">
     <g id="line2d_30">
      <g>
       <use xlink:href="#m4201cc1156" x="55.458906" y="203.679166" style="stroke: #000000; stroke-width: 0.8"/>
      </g>
     </g>
     <g id="text_15">
      <!-- 0.4 -->
      <g transform="translate(34.146094 207.098463) scale(0.09 -0.09)">
       <defs>
        <path id="DejaVuSans-34" d="M 2419 4116
L 825 1625
L 2419 1625
L 2419 4116
z
M 2253 4666
L 3047 4666
L 3047 1625
L 3713 1625
L 3713 1100
L 3047 1100
L 3047 0
L 2419 0
L 2419 1100
L 313 1100
L 313 1709
L 2253 4666
z
" transform="scale(0.015625)"/>
       </defs>
       <use xlink:href="#DejaVuSans-30"/>
       <use xlink:href="#DejaVuSans-2e" transform="translate(63.623047 0)"/>
       <use xlink:href="#DejaVuSans-34" transform="translate(95.410156 0)"/>
      </g>
     </g>
    </g>
    <g id="ytick_13">
     <g id="line2d_31">
      <g>
       <use xlink:href="#m4201cc1156" x="55.458906" y="175.126652" style="stroke: #000000; stroke-width: 0.8"/>
      </g>
     </g>
     <g id="text_16">
      <!-- 0.5 -->
      <g transform="translate(34.146094 178.545949) scale(0.09 -0.09)">
       <use xlink:href="#DejaVuSans-30"/>
       <use xlink:href="#DejaVuSans-2e" transform="translate(63.623047 0)"/>
       <use xlink:href="#DejaVuSans-35" transform="translate(95.410156 0)"/>
      </g>
     </g>
    </g>
    <g id="text_17">
     <!-- $D$ -->
     <g transform="translate(28.066406 246.744885) rotate(-90) scale(0.1 -0.1)">
      <defs>
       <path id="DejaVuSans-Oblique-44" d="M 1081 4666
L 2438 4666
Q 3519 4666 4070 4208
Q 4622 3750 4622 2847
Q 4622 2250 4412 1698
Q 4203 1147 3834 769
Q 3463 381 2891 190
Q 2319 0 1538 0
L 172 0
L 1081 4666
z
M 1613 4147
L 909 519
L 1734 519
Q 2794 519 3375 1128
Q 3956 1738 3956 2847
Q 3956 3519 3581 3833
Q 3206 4147 2406 4147
L 1613 4147
z
" transform="scale(0.015625)"/>
      </defs>
      <use xlink:href="#DejaVuSans-Oblique-44" transform="translate(0 0.09375)"/>
     </g>
    </g>
   </g>
   <g id="line2d_32">
    <path d="M 73.938025 175.126652
L 90.232238 193.846049
L 99.119991 203.71739
L 106.526451 211.635725
L 113.192265 218.46904
L 119.85808 224.989432
L 126.523894 231.172983
L 132.449063 236.374634
L 138.374231 241.293688
L 144.299399 245.929966
L 150.224568 250.287137
L 156.149736 254.371986
L 162.074904 258.193728
L 168.000073 261.763363
L 173.925241 265.093123
L 180.591055 268.568562
L 187.25687 271.775859
L 193.922684 274.734045
L 200.588499 277.461761
L 207.994959 280.244055
L 215.40142 282.787282
L 223.548526 285.334646
L 231.695633 287.645722
L 240.583385 289.925835
L 249.471138 291.981842
L 259.099536 293.985384
L 269.468581 295.9141
L 280.578271 297.75089
L 292.428608 299.483651
L 305.019591 301.104801
L 319.091866 302.688657
L 334.645433 304.203776
L 351.680292 305.627753
L 370.196443 306.946453
L 390.934532 308.1937
L 413.894559 309.347967
L 439.817171 310.425553
L 443.520401 310.563118
L 443.520401 310.563118
" clip-path="url(#pe0237b2f47)" style="fill: none; stroke: #1f77b4; stroke-width: 1.6; stroke-linecap: square"/>
   </g>
   <g id="line2d_33">
    <g clip-path="url(#pe0237b2f47)">
     <use xlink:href="#m699dcde799" x="73.938025" y="175.126652" style="fill-opacity: 0; stroke: #ff7f0e"/>
     <use xlink:href="#m699dcde799" x="104.736556" y="209.751662" style="fill-opacity: 0; stroke: #ff7f0e"/>
     <use xlink:href="#m699dcde799" x="135.535088" y="238.972015" style="fill-opacity: 0; stroke: #ff7f0e"/>
     <use xlink:href="#m699dcde799" x="166.333619" y="260.784194" style="fill-opacity: 0; stroke: #ff7f0e"/>
     <use xlink:href="#m699dcde799" x="197.13215" y="276.075034" style="fill-opacity: 0; stroke: #ff7f0e"/>
     <use xlink:href="#m699dcde799" x="227.930682" y="286.60549" style="fill-opacity: 0; stroke: #ff7f0e"/>
     <use xlink:href="#m699dcde799" x="258.729213" y="293.912291" style="fill-opacity: 0; stroke: #ff7f0e"/>
     <use xlink:href="#m699dcde799" x="289.527744" y="299.079275" style="fill-opacity: 0; stroke: #ff7f0e"/>
     <use xlink:href="#m699dcde799" x="320.326276" y="302.817377" style="fill-opacity: 0; stroke: #ff7f0e"/>
     <use xlink:href="#m699dcde799" x="351.124807" y="305.584737" style="fill-opacity: 0; stroke: #ff7f0e"/>
     <use xlink:href="#m699dcde799" x="381.923339" y="307.678371" style="fill-opacity: 0; stroke: #ff7f0e"/>
     <use xlink:href="#m699dcde799" x="412.72187" y="309.293977" style="fill-opacity: 0; stroke: #ff7f0e"/>
     <use xlink:href="#m699dcde799" x="443.520401" y="310.563118" style="fill-opacity: 0; stroke: #ff7f0e"/>
    </g>
   </g>
   <g id="patch_9">
    <path d="M 55.458906 317.334941
L 55.458906 168.354829
" style="fill: none; stroke: #000000; stroke-width: 0.8; stroke-linejoin: miter; stroke-linecap: square"/>
   </g>
   <g id="patch_10">
    <path d="M 461.99952 317.334941
L 461.99952 168.354829
" style="fill: none; stroke: #000000; stroke-width: 0.8; stroke-linejoin: miter; stroke-linecap: square"/>
   </g>
   <g id="patch_11">
    <path d="M 55.458906 317.334941
L 461.99952 317.334941
" style="fill: none; stroke: #000000; stroke-width: 0.8; stroke-linejoin: miter; stroke-linecap: square"/>
   </g>
   <g id="patch_12">
    <path d="M 55.458906 168.354829
L 461.99952 168.354829
" style="fill: none; stroke: #000000; stroke-width: 0.8; stroke-linejoin: miter; stroke-linecap: square"/>
   </g>
  </g>
  <g id="axes_3">
   <g id="patch_13">
    <path d="M 55.458906 475.815533
L 461.99952 475.815533
L 461.99952 326.835421
L 55.458906 326.835421
z
" style="fill: #ffffff"/>
   </g>
   <g id="matplotlib.axis_5">
    <g id="xtick_15">
     <g id="line2d_34">
      <g>
       <use xlink:href="#m1c0b98335c" x="73.938025" y="475.815533" style="stroke: #000000; stroke-width: 0.8"/>
      </g>
     </g>
     <g id="text_18">
      <!-- 0 -->
      <g transform="translate(71.0749 489.654127) scale(0.09 -0.09)">
       <use xlink:href="#DejaVuSans-30"/>
      </g>
     </g>
    </g>
    <g id="xtick_16">
     <g id="line2d_35">
      <g>
       <use xlink:href="#m1c0b98335c" x="135.535088" y="475.815533" style="stroke: #000000; stroke-width: 0.8"/>
      </g>
     </g>
     <g id="text_19">
      <!-- 2 -->
      <g transform="translate(132.671963 489.654127) scale(0.09 -0.09)">
       <use xlink:href="#DejaVuSans-32"/>
      </g>
     </g>
    </g>
    <g id="xtick_17">
     <g id="line2d_36">
      <g>
       <use xlink:href="#m1c0b98335c" x="197.13215" y="475.815533" style="stroke: #000000; stroke-width: 0.8"/>
      </g>
     </g>
     <g id="text_20">
      <!-- 4 -->
      <g transform="translate(194.269025 489.654127) scale(0.09 -0.09)">
       <use xlink:href="#DejaVuSans-34"/>
      </g>
     </g>
    </g>
    <g id="xtick_18">
     <g id="line2d_37">
      <g>
       <use xlink:href="#m1c0b98335c" x="258.729213" y="475.815533" style="stroke: #000000; stroke-width: 0.8"/>
      </g>
     </g>
     <g id="text_21">
      <!-- 6 -->
      <g transform="translate(255.866088 489.654127) scale(0.09 -0.09)">
       <defs>
        <path id="DejaVuSans-36" d="M 2113 2584
Q 1688 2584 1439 2293
Q 1191 2003 1191 1497
Q 1191 994 1439 701
Q 1688 409 2113 409
Q 2538 409 2786 701
Q 3034 994 3034 1497
Q 3034 2003 2786 2293
Q 2538 2584 2113 2584
z
M 3366 4563
L 3366 3988
Q 3128 4100 2886 4159
Q 2644 4219 2406 4219
Q 1781 4219 1451 3797
Q 1122 3375 1075 2522
Q 1259 2794 1537 2939
Q 1816 3084 2150 3084
Q 2853 3084 3261 2657
Q 3669 2231 3669 1497
Q 3669 778 3244 343
Q 2819 -91 2113 -91
Q 1303 -91 875 529
Q 447 1150 447 2328
Q 447 3434 972 4092
Q 1497 4750 2381 4750
Q 2619 4750 2861 4703
Q 3103 4656 3366 4563
z
" transform="scale(0.015625)"/>
       </defs>
       <use xlink:href="#DejaVuSans-36"/>
      </g>
     </g>
    </g>
    <g id="xtick_19">
     <g id="line2d_38">
      <g>
       <use xlink:href="#m1c0b98335c" x="320.326276" y="475.815533" style="stroke: #000000; stroke-width: 0.8"/>
      </g>
     </g>
     <g id="text_22">
      <!-- 8 -->
      <g transform="translate(317.463151 489.654127) scale(0.09 -0.09)">
       <defs>
        <path id="DejaVuSans-38" d="M 2034 2216
Q 1584 2216 1326 1975
Q 1069 1734 1069 1313
Q 1069 891 1326 650
Q 1584 409 2034 409
Q 2484 409 2743 651
Q 3003 894 3003 1313
Q 3003 1734 2745 1975
Q 2488 2216 2034 2216
z
M 1403 2484
Q 997 2584 770 2862
Q 544 3141 544 3541
Q 544 4100 942 4425
Q 1341 4750 2034 4750
Q 2731 4750 3128 4425
Q 3525 4100 3525 3541
Q 3525 3141 3298 2862
Q 3072 2584 2669 2484
Q 3125 2378 3379 2068
Q 3634 1759 3634 1313
Q 3634 634 3220 271
Q 2806 -91 2034 -91
Q 1263 -91 848 271
Q 434 634 434 1313
Q 434 1759 690 2068
Q 947 2378 1403 2484
z
M 1172 3481
Q 1172 3119 1398 2916
Q 1625 2713 2034 2713
Q 2441 2713 2670 2916
Q 2900 3119 2900 3481
Q 2900 3844 2670 4047
Q 2441 4250 2034 4250
Q 1625 4250 1398 4047
Q 1172 3844 1172 3481
z
" transform="scale(0.015625)"/>
       </defs>
       <use xlink:href="#DejaVuSans-38"/>
      </g>
     </g>
    </g>
    <g id="xtick_20">
     <g id="line2d_39">
      <g>
       <use xlink:href="#m1c0b98335c" x="381.923339" y="475.815533" style="stroke: #000000; stroke-width: 0.8"/>
      </g>
     </g>
     <g id="text_23">
      <!-- 10 -->
      <g transform="translate(376.197089 489.654127) scale(0.09 -0.09)">
       <use xlink:href="#DejaVuSans-31"/>
       <use xlink:href="#DejaVuSans-30" transform="translate(63.623047 0)"/>
      </g>
     </g>
    </g>
    <g id="xtick_21">
     <g id="line2d_40">
      <g>
       <use xlink:href="#m1c0b98335c" x="443.520401" y="475.815533" style="stroke: #000000; stroke-width: 0.8"/>
      </g>
     </g>
     <g id="text_24">
      <!-- 12 -->
      <g transform="translate(437.794151 489.654127) scale(0.09 -0.09)">
       <use xlink:href="#DejaVuSans-31"/>
       <use xlink:href="#DejaVuSans-32" transform="translate(63.623047 0)"/>
      </g>
     </g>
    </g>
    <g id="text_25">
     <!-- $U/t$ -->
     <g transform="translate(251.379213 503.124283) scale(0.1 -0.1)">
      <defs>
       <path id="DejaVuSans-Oblique-55" d="M 991 4666
L 1625 4666
L 1075 1831
Q 1041 1641 1027 1517
Q 1013 1394 1013 1300
Q 1013 869 1253 645
Q 1494 422 1959 422
Q 2563 422 2898 753
Q 3234 1084 3378 1831
L 3928 4666
L 4563 4666
L 4000 1753
Q 3816 809 3300 359
Q 2784 -91 1888 -91
Q 1188 -91 780 261
Q 372 613 372 1216
Q 372 1325 387 1461
Q 403 1597 434 1753
L 991 4666
z
" transform="scale(0.015625)"/>
      </defs>
      <use xlink:href="#DejaVuSans-Oblique-55" transform="translate(0 0.09375)"/>
      <use xlink:href="#DejaVuSans-2f" transform="translate(73.193359 0.09375)"/>
      <use xlink:href="#DejaVuSans-Oblique-74" transform="translate(106.884766 0.09375)"/>
     </g>
    </g>
   </g>
   <g id="matplotlib.axis_6">
    <g id="ytick_14">
     <g id="line2d_41">
      <g>
       <use xlink:href="#m4201cc1156" x="55.458906" y="469.04371" style="stroke: #000000; stroke-width: 0.8"/>
      </g>
     </g>
     <g id="text_26">
      <!-- 0.5 -->
      <g transform="translate(34.146094 472.463007) scale(0.09 -0.09)">
       <use xlink:href="#DejaVuSans-30"/>
       <use xlink:href="#DejaVuSans-2e" transform="translate(63.623047 0)"/>
       <use xlink:href="#DejaVuSans-35" transform="translate(95.410156 0)"/>
      </g>
     </g>
    </g>
    <g id="ytick_15">
     <g id="line2d_42">
      <g>
       <use xlink:href="#m4201cc1156" x="55.458906" y="440.491196" style="stroke: #000000; stroke-width: 0.8"/>
      </g>
     </g>
     <g id="text_27">
      <!-- 0.6 -->
      <g transform="translate(34.146094 443.910493) scale(0.09 -0.09)">
       <use xlink:href="#DejaVuSans-30"/>
       <use xlink:href="#DejaVuSans-2e" transform="translate(63.623047 0)"/>
       <use xlink:href="#DejaVuSans-36" transform="translate(95.410156 0)"/>
      </g>
     </g>
    </g>
    <g id="ytick_16">
     <g id="line2d_43">
      <g>
       <use xlink:href="#m4201cc1156" x="55.458906" y="411.938682" style="stroke: #000000; stroke-width: 0.8"/>
      </g>
     </g>
     <g id="text_28">
      <!-- 0.7 -->
      <g transform="translate(34.146094 415.357979) scale(0.09 -0.09)">
       <use xlink:href="#DejaVuSans-30"/>
       <use xlink:href="#DejaVuSans-2e" transform="translate(63.623047 0)"/>
       <use xlink:href="#DejaVuSans-37" transform="translate(95.410156 0)"/>
      </g>
     </g>
    </g>
    <g id="ytick_17">
     <g id="line2d_44">
      <g>
       <use xlink:href="#m4201cc1156" x="55.458906" y="383.386168" style="stroke: #000000; stroke-width: 0.8"/>
      </g>
     </g>
     <g id="text_29">
      <!-- 0.8 -->
      <g transform="translate(34.146094 386.805465) scale(0.09 -0.09)">
       <use xlink:href="#DejaVuSans-30"/>
       <use xlink:href="#DejaVuSans-2e" transform="translate(63.623047 0)"/>
       <use xlink:href="#DejaVuSans-38" transform="translate(95.410156 0)"/>
      </g>
     </g>
    </g>
    <g id="ytick_18">
     <g id="line2d_45">
      <g>
       <use xlink:href="#m4201cc1156" x="55.458906" y="354.833654" style="stroke: #000000; stroke-width: 0.8"/>
      </g>
     </g>
     <g id="text_30">
      <!-- 0.9 -->
      <g transform="translate(34.146094 358.252951) scale(0.09 -0.09)">
       <defs>
        <path id="DejaVuSans-39" d="M 703 97
L 703 672
Q 941 559 1184 500
Q 1428 441 1663 441
Q 2288 441 2617 861
Q 2947 1281 2994 2138
Q 2813 1869 2534 1725
Q 2256 1581 1919 1581
Q 1219 1581 811 2004
Q 403 2428 403 3163
Q 403 3881 828 4315
Q 1253 4750 1959 4750
Q 2769 4750 3195 4129
Q 3622 3509 3622 2328
Q 3622 1225 3098 567
Q 2575 -91 1691 -91
Q 1453 -91 1209 -44
Q 966 3 703 97
z
M 1959 2075
Q 2384 2075 2632 2365
Q 2881 2656 2881 3163
Q 2881 3666 2632 3958
Q 2384 4250 1959 4250
Q 1534 4250 1286 3958
Q 1038 3666 1038 3163
Q 1038 2656 1286 2365
Q 1534 2075 1959 2075
z
" transform="scale(0.015625)"/>
       </defs>
       <use xlink:href="#DejaVuSans-30"/>
       <use xlink:href="#DejaVuSans-2e" transform="translate(63.623047 0)"/>
       <use xlink:href="#DejaVuSans-39" transform="translate(95.410156 0)"/>
      </g>
     </g>
    </g>
    <g id="text_31">
     <!-- $\mu^2$ -->
     <g transform="translate(28.046094 407.125477) rotate(-90) scale(0.1 -0.1)">
      <defs>
       <path id="DejaVuSans-Oblique-3bc" d="M -84 -1331
L 856 3500
L 1434 3500
L 1009 1322
Q 997 1256 987 1175
Q 978 1094 978 1013
Q 978 722 1161 565
Q 1344 409 1684 409
Q 2147 409 2431 671
Q 2716 934 2816 1459
L 3213 3500
L 3788 3500
L 3266 809
Q 3253 750 3248 706
Q 3244 663 3244 628
Q 3244 531 3283 486
Q 3322 441 3406 441
Q 3438 441 3492 456
Q 3547 472 3647 513
L 3559 50
Q 3422 -19 3297 -55
Q 3172 -91 3053 -91
Q 2847 -91 2730 40
Q 2613 172 2613 403
Q 2438 153 2195 31
Q 1953 -91 1625 -91
Q 1334 -91 1117 43
Q 900 178 831 397
L 494 -1331
L -84 -1331
z
" transform="scale(0.015625)"/>
      </defs>
      <use xlink:href="#DejaVuSans-Oblique-3bc" transform="translate(0 0.765625)"/>
      <use xlink:href="#DejaVuSans-32" transform="translate(68.089193 39.046875) scale(0.7)"/>
     </g>
    </g>
   </g>
   <g id="line2d_46">
    <path d="M 73.938025 469.04371
L 90.232238 450.324314
L 99.119991 440.452972
L 106.526451 432.534637
L 113.192265 425.701323
L 119.85808 419.18093
L 126.523894 412.997379
L 132.449063 407.795728
L 138.374231 402.876674
L 144.299399 398.240396
L 150.224568 393.883226
L 156.149736 389.798376
L 162.074904 385.976634
L 168.000073 382.406999
L 173.925241 379.077239
L 180.591055 375.6018
L 187.25687 372.394503
L 193.922684 369.436317
L 200.588499 366.708602
L 207.994959 363.926308
L 215.40142 361.38308
L 223.548526 358.835716
L 231.695633 356.524641
L 240.583385 354.244527
L 249.471138 352.18852
L 259.099536 350.184979
L 269.468581 348.256262
L 280.578271 346.419472
L 292.428608 344.686712
L 305.019591 343.065561
L 319.091866 341.481705
L 334.645433 339.966586
L 351.680292 338.542609
L 370.196443 337.22391
L 390.934532 335.976662
L 413.894559 334.822395
L 439.817171 333.74481
L 443.520401 333.607244
L 443.520401 333.607244
" clip-path="url(#pfb6ff0df68)" style="fill: none; stroke: #1f77b4; stroke-width: 1.6; stroke-linecap: square"/>
   </g>
   <g id="line2d_47">
    <g clip-path="url(#pfb6ff0df68)">
     <use xlink:href="#m699dcde799" x="73.938025" y="469.04371" style="fill-opacity: 0; stroke: #ff7f0e"/>
     <use xlink:href="#m699dcde799" x="104.736556" y="434.418701" style="fill-opacity: 0; stroke: #ff7f0e"/>
     <use xlink:href="#m699dcde799" x="135.535088" y="405.198348" style="fill-opacity: 0; stroke: #ff7f0e"/>
     <use xlink:href="#m699dcde799" x="166.333619" y="383.386168" style="fill-opacity: 0; stroke: #ff7f0e"/>
     <use xlink:href="#m699dcde799" x="197.13215" y="368.095329" style="fill-opacity: 0; stroke: #ff7f0e"/>
     <use xlink:href="#m699dcde799" x="227.930682" y="357.564872" style="fill-opacity: 0; stroke: #ff7f0e"/>
     <use xlink:href="#m699dcde799" x="258.729213" y="350.258072" style="fill-opacity: 0; stroke: #ff7f0e"/>
     <use xlink:href="#m699dcde799" x="289.527744" y="345.091088" style="fill-opacity: 0; stroke: #ff7f0e"/>
     <use xlink:href="#m699dcde799" x="320.326276" y="341.352986" style="fill-opacity: 0; stroke: #ff7f0e"/>
     <use xlink:href="#m699dcde799" x="351.124807" y="338.585625" style="fill-opacity: 0; stroke: #ff7f0e"/>
     <use xlink:href="#m699dcde799" x="381.923339" y="336.491992" style="fill-opacity: 0; stroke: #ff7f0e"/>
     <use xlink:href="#m699dcde799" x="412.72187" y="334.876386" style="fill-opacity: 0; stroke: #ff7f0e"/>
     <use xlink:href="#m699dcde799" x="443.520401" y="333.607244" style="fill-opacity: 0; stroke: #ff7f0e"/>
    </g>
   </g>
   <g id="patch_14">
    <path d="M 55.458906 475.815533
L 55.458906 326.835421
" style="fill: none; stroke: #000000; stroke-width: 0.8; stroke-linejoin: miter; stroke-linecap: square"/>
   </g>
   <g id="patch_15">
    <path d="M 461.99952 475.815533
L 461.99952 326.835421
" style="fill: none; stroke: #000000; stroke-width: 0.8; stroke-linejoin: miter; stroke-linecap: square"/>
   </g>
   <g id="patch_16">
    <path d="M 55.458906 475.815533
L 461.99952 475.815533
" style="fill: none; stroke: #000000; stroke-width: 0.8; stroke-linejoin: miter; stroke-linecap: square"/>
   </g>
   <g id="patch_17">
    <path d="M 55.458906 326.835421
L 461.99952 326.835421
" style="fill: none; stroke: #000000; stroke-width: 0.8; stroke-linejoin: miter; stroke-linecap: square"/>
   </g>
  </g>
 </g>
 <defs>
  <clipPath id="p5752166243">
   <rect x="55.458906" y="9.874237" width="406.540614" height="148.980112"/>
  </clipPath>
  <clipPath id="pe0237b2f47">
   <rect x="55.458906" y="168.354829" width="406.540614" height="148.980112"/>
  </clipPath>
  <clipPath id="pfb6ff0df68">
   <rect x="55.458906" y="326.835421" width="406.540614" height="148.980112"/>
  </clipPath>
 </defs>
</svg>
